<svg xmlns="http://www.w3.org/2000/svg" version="1.1" xmlns:xlink="http://www.w3.org/1999/xlink" xmlns:svgjs="http://svgjs.com/svgjs" width="400" height="305" preserveAspectRatio="none" viewBox="0 0 400 305"><g mask="url(&quot;#SvgjsMask1158&quot;)" fill="none"><rect width="400" height="305" x="0" y="0" fill="rgba(238, 233, 161, 1)"></rect><use xlink:href="#SvgjsG1161" transform="translate(0, 0)" fill="rgba(0, 0, 0, 0.75)"></use><use xlink:href="#SvgjsG1161" transform="translate(312, 0)" fill="rgba(0, 0, 0, 0.75)"></use></g><defs><mask id="SvgjsMask1158"><rect width="400" height="305" fill="#ffffff"></rect></mask><g id="SvgjsG1160"><path d="M16 7.727V0H8.273zM0 16h8.292L0 7.708z"></path><path d="M5.948 8l2.347 2.347-4.345 4.345L1.603 12.345z m6.007-6.204l2.347 2.347-4.345 4.345-2.347-2.347z"></path></g><g id="SvgjsG1159"><path d="M13.658 2.342C12.147 0.832 10.138 0 8.001 0h-0.01c-2.135 0-4.142 0.832-5.652 2.343S-0.002 5.861 0 7.995c-0.002 2.138 0.83 4.148 2.341 5.661C3.851 15.168 5.859 16 7.995 16h0.001c2.138 0 4.149-0.832 5.66-2.344C15.168 12.144 16 10.134 16 7.996c0-2.136-0.832-4.143-2.342-5.654z m-5.657-0.558c3.427 0 6.216 2.787 6.215 6.212a6.186 6.186 0 0 1-1.175 3.633l-8.672-8.679c1.048-0.757 2.304-1.166 3.622-1.166h0.01zM3.603 12.395c-1.174-1.175-1.82-2.737-1.819-4.4-0.001-1.361 0.434-2.656 1.239-3.726l8.698 8.706a6.189 6.189 0 0 1-3.725 1.241c-1.66 0-3.22-0.647-4.393-1.821z"></path></g><g id="SvgjsG1161"><use xlink:href="#SvgjsG1159" transform="translate(0, 0) scale(1.3)" fill="rgba(0, 0, 0, 0.75)"></use><use xlink:href="#SvgjsG1159" transform="translate(0, 31.200000000000003) scale(1.3)" fill="rgba(0, 0, 0, 0.75)"></use><use xlink:href="#SvgjsG1159" transform="translate(0, 62.400000000000006) scale(1.3)" fill="rgba(0, 0, 0, 0.75)"></use><use xlink:href="#SvgjsG1159" transform="translate(0, 93.60000000000001) scale(1.3)" fill="rgba(0, 0, 0, 0.75)"></use><use xlink:href="#SvgjsG1160" transform="translate(0, 124.80000000000001) scale(1.3)" fill="rgba(0, 0, 0, 0.75)"></use><use xlink:href="#SvgjsG1159" transform="translate(0, 156) scale(1.3)" fill="rgba(0, 0, 0, 0.75)"></use><use xlink:href="#SvgjsG1160" transform="translate(0, 187.20000000000002) scale(1.3)" fill="rgba(0, 0, 0, 0.75)"></use><use xlink:href="#SvgjsG1160" transform="translate(0, 218.40000000000003) scale(1.3)" fill="rgba(0, 0, 0, 0.75)"></use><use xlink:href="#SvgjsG1160" transform="translate(0, 249.60000000000002) scale(1.3)" fill="rgba(0, 0, 0, 0.75)"></use><use xlink:href="#SvgjsG1159" transform="translate(0, 280.8) scale(1.3)" fill="rgba(0, 0, 0, 0.75)"></use><use xlink:href="#SvgjsG1160" transform="translate(31.200000000000003, 0) scale(1.3)" fill="rgba(0, 0, 0, 0.75)"></use><use xlink:href="#SvgjsG1160" transform="translate(31.200000000000003, 31.200000000000003) scale(1.3)" fill="rgba(0, 0, 0, 0.75)"></use><use xlink:href="#SvgjsG1159" transform="translate(31.200000000000003, 62.400000000000006) scale(1.3)" fill="rgba(0, 0, 0, 0.75)"></use><use xlink:href="#SvgjsG1159" transform="translate(31.200000000000003, 93.60000000000001) scale(1.3)" fill="rgba(0, 0, 0, 0.75)"></use><use xlink:href="#SvgjsG1160" transform="translate(31.200000000000003, 124.80000000000001) scale(1.3)" fill="rgba(0, 0, 0, 0.75)"></use><use xlink:href="#SvgjsG1160" transform="translate(31.200000000000003, 156) scale(1.3)" fill="rgba(0, 0, 0, 0.75)"></use><use xlink:href="#SvgjsG1159" transform="translate(31.200000000000003, 187.20000000000002) scale(1.3)" fill="rgba(0, 0, 0, 0.75)"></use><use xlink:href="#SvgjsG1159" transform="translate(31.200000000000003, 218.40000000000003) scale(1.3)" fill="rgba(0, 0, 0, 0.75)"></use><use xlink:href="#SvgjsG1159" transform="translate(31.200000000000003, 249.60000000000002) scale(1.3)" fill="rgba(0, 0, 0, 0.75)"></use><use xlink:href="#SvgjsG1159" transform="translate(31.200000000000003, 280.8) scale(1.3)" fill="rgba(0, 0, 0, 0.75)"></use><use xlink:href="#SvgjsG1160" transform="translate(62.400000000000006, 0) scale(1.3)" fill="rgba(0, 0, 0, 0.75)"></use><use xlink:href="#SvgjsG1159" transform="translate(62.400000000000006, 31.200000000000003) scale(1.3)" fill="rgba(0, 0, 0, 0.75)"></use><use xlink:href="#SvgjsG1159" transform="translate(62.400000000000006, 62.400000000000006) scale(1.3)" fill="rgba(0, 0, 0, 0.75)"></use><use xlink:href="#SvgjsG1160" transform="translate(62.400000000000006, 93.60000000000001) scale(1.3)" fill="rgba(0, 0, 0, 0.75)"></use><use xlink:href="#SvgjsG1159" transform="translate(62.400000000000006, 124.80000000000001) scale(1.3)" fill="rgba(0, 0, 0, 0.75)"></use><use xlink:href="#SvgjsG1160" transform="translate(62.400000000000006, 156) scale(1.3)" fill="rgba(0, 0, 0, 0.75)"></use><use xlink:href="#SvgjsG1160" transform="translate(62.400000000000006, 187.20000000000002) scale(1.3)" fill="rgba(0, 0, 0, 0.75)"></use><use xlink:href="#SvgjsG1159" transform="translate(62.400000000000006, 218.40000000000003) scale(1.3)" fill="rgba(0, 0, 0, 0.75)"></use><use xlink:href="#SvgjsG1160" transform="translate(62.400000000000006, 249.60000000000002) scale(1.3)" fill="rgba(0, 0, 0, 0.75)"></use><use xlink:href="#SvgjsG1159" transform="translate(62.400000000000006, 280.8) scale(1.3)" fill="rgba(0, 0, 0, 0.75)"></use><use xlink:href="#SvgjsG1160" transform="translate(93.60000000000001, 0) scale(1.3)" fill="rgba(0, 0, 0, 0.75)"></use><use xlink:href="#SvgjsG1159" transform="translate(93.60000000000001, 31.200000000000003) scale(1.3)" fill="rgba(0, 0, 0, 0.75)"></use><use xlink:href="#SvgjsG1159" transform="translate(93.60000000000001, 62.400000000000006) scale(1.3)" fill="rgba(0, 0, 0, 0.75)"></use><use xlink:href="#SvgjsG1160" transform="translate(93.60000000000001, 93.60000000000001) scale(1.3)" fill="rgba(0, 0, 0, 0.75)"></use><use xlink:href="#SvgjsG1160" transform="translate(93.60000000000001, 124.80000000000001) scale(1.3)" fill="rgba(0, 0, 0, 0.75)"></use><use xlink:href="#SvgjsG1159" transform="translate(93.60000000000001, 156) scale(1.3)" fill="rgba(0, 0, 0, 0.75)"></use><use xlink:href="#SvgjsG1159" transform="translate(93.60000000000001, 187.20000000000002) scale(1.3)" fill="rgba(0, 0, 0, 0.75)"></use><use xlink:href="#SvgjsG1159" transform="translate(93.60000000000001, 218.40000000000003) scale(1.3)" fill="rgba(0, 0, 0, 0.75)"></use><use xlink:href="#SvgjsG1160" transform="translate(93.60000000000001, 249.60000000000002) scale(1.3)" fill="rgba(0, 0, 0, 0.75)"></use><use xlink:href="#SvgjsG1160" transform="translate(93.60000000000001, 280.8) scale(1.3)" fill="rgba(0, 0, 0, 0.75)"></use><use xlink:href="#SvgjsG1159" transform="translate(124.80000000000001, 0) scale(1.3)" fill="rgba(0, 0, 0, 0.75)"></use><use xlink:href="#SvgjsG1159" transform="translate(124.80000000000001, 31.200000000000003) scale(1.3)" fill="rgba(0, 0, 0, 0.75)"></use><use xlink:href="#SvgjsG1159" transform="translate(124.80000000000001, 62.400000000000006) scale(1.3)" fill="rgba(0, 0, 0, 0.75)"></use><use xlink:href="#SvgjsG1160" transform="translate(124.80000000000001, 93.60000000000001) scale(1.3)" fill="rgba(0, 0, 0, 0.75)"></use><use xlink:href="#SvgjsG1159" transform="translate(124.80000000000001, 124.80000000000001) scale(1.3)" fill="rgba(0, 0, 0, 0.75)"></use><use xlink:href="#SvgjsG1159" transform="translate(124.80000000000001, 156) scale(1.3)" fill="rgba(0, 0, 0, 0.75)"></use><use xlink:href="#SvgjsG1159" transform="translate(124.80000000000001, 187.20000000000002) scale(1.3)" fill="rgba(0, 0, 0, 0.75)"></use><use xlink:href="#SvgjsG1159" transform="translate(124.80000000000001, 218.40000000000003) scale(1.3)" fill="rgba(0, 0, 0, 0.75)"></use><use xlink:href="#SvgjsG1159" transform="translate(124.80000000000001, 249.60000000000002) scale(1.3)" fill="rgba(0, 0, 0, 0.75)"></use><use xlink:href="#SvgjsG1160" transform="translate(124.80000000000001, 280.8) scale(1.3)" fill="rgba(0, 0, 0, 0.75)"></use><use xlink:href="#SvgjsG1160" transform="translate(156, 0) scale(1.3)" fill="rgba(0, 0, 0, 0.75)"></use><use xlink:href="#SvgjsG1159" transform="translate(156, 31.200000000000003) scale(1.3)" fill="rgba(0, 0, 0, 0.75)"></use><use xlink:href="#SvgjsG1160" transform="translate(156, 62.400000000000006) scale(1.3)" fill="rgba(0, 0, 0, 0.75)"></use><use xlink:href="#SvgjsG1159" transform="translate(156, 93.60000000000001) scale(1.3)" fill="rgba(0, 0, 0, 0.75)"></use><use xlink:href="#SvgjsG1160" transform="translate(156, 124.80000000000001) scale(1.3)" fill="rgba(0, 0, 0, 0.75)"></use><use xlink:href="#SvgjsG1159" transform="translate(156, 156) scale(1.3)" fill="rgba(0, 0, 0, 0.75)"></use><use xlink:href="#SvgjsG1160" transform="translate(156, 187.20000000000002) scale(1.3)" fill="rgba(0, 0, 0, 0.75)"></use><use xlink:href="#SvgjsG1159" transform="translate(156, 218.40000000000003) scale(1.3)" fill="rgba(0, 0, 0, 0.75)"></use><use xlink:href="#SvgjsG1159" transform="translate(156, 249.60000000000002) scale(1.3)" fill="rgba(0, 0, 0, 0.75)"></use><use xlink:href="#SvgjsG1160" transform="translate(156, 280.8) scale(1.3)" fill="rgba(0, 0, 0, 0.75)"></use><use xlink:href="#SvgjsG1159" transform="translate(187.20000000000002, 0) scale(1.3)" fill="rgba(0, 0, 0, 0.75)"></use><use xlink:href="#SvgjsG1159" transform="translate(187.20000000000002, 31.200000000000003) scale(1.3)" fill="rgba(0, 0, 0, 0.75)"></use><use xlink:href="#SvgjsG1159" transform="translate(187.20000000000002, 62.400000000000006) scale(1.3)" fill="rgba(0, 0, 0, 0.75)"></use><use xlink:href="#SvgjsG1160" transform="translate(187.20000000000002, 93.60000000000001) scale(1.3)" fill="rgba(0, 0, 0, 0.75)"></use><use xlink:href="#SvgjsG1160" transform="translate(187.20000000000002, 124.80000000000001) scale(1.3)" fill="rgba(0, 0, 0, 0.75)"></use><use xlink:href="#SvgjsG1160" transform="translate(187.20000000000002, 156) scale(1.3)" fill="rgba(0, 0, 0, 0.75)"></use><use xlink:href="#SvgjsG1160" transform="translate(187.20000000000002, 187.20000000000002) scale(1.3)" fill="rgba(0, 0, 0, 0.75)"></use><use xlink:href="#SvgjsG1159" transform="translate(187.20000000000002, 218.40000000000003) scale(1.3)" fill="rgba(0, 0, 0, 0.75)"></use><use xlink:href="#SvgjsG1160" transform="translate(187.20000000000002, 249.60000000000002) scale(1.3)" fill="rgba(0, 0, 0, 0.75)"></use><use xlink:href="#SvgjsG1160" transform="translate(187.20000000000002, 280.8) scale(1.3)" fill="rgba(0, 0, 0, 0.75)"></use><use xlink:href="#SvgjsG1160" transform="translate(218.40000000000003, 0) scale(1.3)" fill="rgba(0, 0, 0, 0.75)"></use><use xlink:href="#SvgjsG1160" transform="translate(218.40000000000003, 31.200000000000003) scale(1.3)" fill="rgba(0, 0, 0, 0.75)"></use><use xlink:href="#SvgjsG1160" transform="translate(218.40000000000003, 62.400000000000006) scale(1.3)" fill="rgba(0, 0, 0, 0.75)"></use><use xlink:href="#SvgjsG1159" transform="translate(218.40000000000003, 93.60000000000001) scale(1.3)" fill="rgba(0, 0, 0, 0.75)"></use><use xlink:href="#SvgjsG1160" transform="translate(218.40000000000003, 124.80000000000001) scale(1.3)" fill="rgba(0, 0, 0, 0.75)"></use><use xlink:href="#SvgjsG1159" transform="translate(218.40000000000003, 156) scale(1.3)" fill="rgba(0, 0, 0, 0.75)"></use><use xlink:href="#SvgjsG1160" transform="translate(218.40000000000003, 187.20000000000002) scale(1.3)" fill="rgba(0, 0, 0, 0.75)"></use><use xlink:href="#SvgjsG1160" transform="translate(218.40000000000003, 218.40000000000003) scale(1.3)" fill="rgba(0, 0, 0, 0.75)"></use><use xlink:href="#SvgjsG1159" transform="translate(218.40000000000003, 249.60000000000002) scale(1.3)" fill="rgba(0, 0, 0, 0.75)"></use><use xlink:href="#SvgjsG1160" transform="translate(218.40000000000003, 280.8) scale(1.3)" fill="rgba(0, 0, 0, 0.75)"></use><use xlink:href="#SvgjsG1159" transform="translate(249.60000000000002, 0) scale(1.3)" fill="rgba(0, 0, 0, 0.75)"></use><use xlink:href="#SvgjsG1160" transform="translate(249.60000000000002, 31.200000000000003) scale(1.3)" fill="rgba(0, 0, 0, 0.75)"></use><use xlink:href="#SvgjsG1159" transform="translate(249.60000000000002, 62.400000000000006) scale(1.3)" fill="rgba(0, 0, 0, 0.75)"></use><use xlink:href="#SvgjsG1160" transform="translate(249.60000000000002, 93.60000000000001) scale(1.3)" fill="rgba(0, 0, 0, 0.75)"></use><use xlink:href="#SvgjsG1160" transform="translate(249.60000000000002, 124.80000000000001) scale(1.3)" fill="rgba(0, 0, 0, 0.75)"></use><use xlink:href="#SvgjsG1160" transform="translate(249.60000000000002, 156) scale(1.3)" fill="rgba(0, 0, 0, 0.75)"></use><use xlink:href="#SvgjsG1160" transform="translate(249.60000000000002, 187.20000000000002) scale(1.3)" fill="rgba(0, 0, 0, 0.75)"></use><use xlink:href="#SvgjsG1159" transform="translate(249.60000000000002, 218.40000000000003) scale(1.3)" fill="rgba(0, 0, 0, 0.75)"></use><use xlink:href="#SvgjsG1160" transform="translate(249.60000000000002, 249.60000000000002) scale(1.3)" fill="rgba(0, 0, 0, 0.75)"></use><use xlink:href="#SvgjsG1159" transform="translate(249.60000000000002, 280.8) scale(1.3)" fill="rgba(0, 0, 0, 0.75)"></use><use xlink:href="#SvgjsG1159" transform="translate(280.8, 0) scale(1.3)" fill="rgba(0, 0, 0, 0.75)"></use><use xlink:href="#SvgjsG1160" transform="translate(280.8, 31.200000000000003) scale(1.3)" fill="rgba(0, 0, 0, 0.75)"></use><use xlink:href="#SvgjsG1160" transform="translate(280.8, 62.400000000000006) scale(1.3)" fill="rgba(0, 0, 0, 0.75)"></use><use xlink:href="#SvgjsG1159" transform="translate(280.8, 93.60000000000001) scale(1.3)" fill="rgba(0, 0, 0, 0.75)"></use><use xlink:href="#SvgjsG1160" transform="translate(280.8, 124.80000000000001) scale(1.3)" fill="rgba(0, 0, 0, 0.75)"></use><use xlink:href="#SvgjsG1160" transform="translate(280.8, 156) scale(1.3)" fill="rgba(0, 0, 0, 0.75)"></use><use xlink:href="#SvgjsG1160" transform="translate(280.8, 187.20000000000002) scale(1.3)" fill="rgba(0, 0, 0, 0.75)"></use><use xlink:href="#SvgjsG1160" transform="translate(280.8, 218.40000000000003) scale(1.3)" fill="rgba(0, 0, 0, 0.75)"></use><use xlink:href="#SvgjsG1159" transform="translate(280.8, 249.60000000000002) scale(1.3)" fill="rgba(0, 0, 0, 0.75)"></use><use xlink:href="#SvgjsG1159" transform="translate(280.8, 280.8) scale(1.3)" fill="rgba(0, 0, 0, 0.75)"></use></g></defs></svg>